<?xml version="1.0" encoding="UTF-8" standalone="no"?>
<!DOCTYPE svg PUBLIC "-//W3C//DTD SVG 1.1//EN" "http://www.w3.org/Graphics/SVG/1.1/DTD/svg11.dtd">
<svg width="100%" height="100%" viewBox="0 0 2084 417" version="1.1" xmlns="http://www.w3.org/2000/svg" xmlns:xlink="http://www.w3.org/1999/xlink" xml:space="preserve" xmlns:serif="http://www.serif.com/" style="fill-rule:evenodd;clip-rule:evenodd;stroke-linejoin:round;stroke-miterlimit:2;"><path d="M516.372,218.25l1.7,-3.4l16.433,-0.567c5.856,-11.522 12.609,-21.439 20.259,-29.75c7.65,-8.311 16.102,-15.441 25.358,-21.391c9.256,-5.95 19.267,-10.956 30.033,-15.017c10.767,-4.061 22.195,-7.603 34.284,-10.625l0,-0.567c-5.667,0 -11.428,-0.094 -17.284,-0.283c-5.855,-0.189 -12.089,-0.378 -18.7,-0.567c-6.611,-0.189 -13.789,-0.377 -21.533,-0.566c-7.744,-0.189 -16.339,-0.284 -25.783,-0.284c-11.711,0 -23.706,0.331 -35.984,0.992c-12.277,0.661 -24.225,1.889 -35.841,3.683c-11.617,1.795 -22.62,4.203 -33.009,7.225c-10.389,3.023 -19.408,6.848 -27.058,11.475c-7.65,4.628 -13.742,10.106 -18.275,16.434c-4.533,6.327 -6.8,13.836 -6.8,22.525c0,6.233 1.417,11.475 4.25,15.725c2.833,4.25 6.375,7.65 10.625,10.2c4.25,2.55 8.972,4.344 14.167,5.383c5.194,1.039 10.152,1.558 14.875,1.558c6.611,0 13.93,-1.039 21.958,-3.116c8.028,-2.078 15.631,-5.148 22.808,-9.209c7.178,-4.061 13.175,-9.161 17.992,-15.3c4.817,-6.139 7.225,-13.175 7.225,-21.108c0,-3.778 -0.331,-7.461 -0.992,-11.05c-0.661,-3.589 -1.747,-7.083 -3.258,-10.483l2.55,-1.417c0.944,1.7 2.031,4.486 3.258,8.358c1.228,3.873 1.842,9.114 1.842,15.725c0,9.445 -2.219,18.039 -6.658,25.784c-4.439,7.744 -10.2,14.355 -17.284,19.833c-7.083,5.478 -14.969,9.728 -23.658,12.75c-8.689,3.022 -17.283,4.533 -25.783,4.533c-5.667,0 -11.334,-1.039 -17,-3.116c-5.667,-2.078 -10.861,-5.1 -15.584,-9.067c-4.722,-3.967 -8.547,-8.831 -11.475,-14.592c-2.927,-5.761 -4.391,-12.325 -4.391,-19.691c0,-12.656 3.4,-23.706 10.2,-33.15c6.8,-9.445 15.677,-17.52 26.633,-24.225c10.956,-6.706 23.375,-12.278 37.258,-16.717c13.884,-4.439 27.861,-7.933 41.934,-10.483c14.072,-2.55 27.672,-4.298 40.8,-5.242c13.127,-0.944 24.319,-1.417 33.575,-1.417c13.222,0 25.027,0.095 35.416,0.284c10.389,0.189 19.692,0.425 27.909,0.708c8.216,0.283 15.536,0.567 21.958,0.85c6.422,0.283 12.278,0.425 17.567,0.425c2.077,0 4.439,0.236 7.083,0.708c2.644,0.473 5.1,1.275 7.367,2.409c2.266,1.133 4.202,2.597 5.808,4.391c1.606,1.795 2.408,4.014 2.408,6.659c0,3.589 -1.227,6.469 -3.683,8.641c-2.456,2.173 -5.478,3.778 -9.067,4.817c-3.589,1.039 -7.272,1.7 -11.05,1.983c-3.777,0.284 -6.989,0.425 -9.633,0.425c-2.078,0 -4.439,-0.094 -7.083,-0.283c-2.645,-0.189 -5.289,-0.378 -7.934,-0.567c-2.644,-0.189 -5.147,-0.377 -7.508,-0.566c-2.361,-0.189 -4.297,-0.284 -5.808,-0.284c-8.689,0 -17,2.645 -24.934,7.934c-7.933,5.289 -15.3,11.758 -22.1,19.408c-6.8,7.65 -12.844,15.772 -18.133,24.367c-5.289,8.594 -9.822,16.197 -13.6,22.808c6.044,-0.567 11.192,-1.322 15.442,-2.267c4.25,-0.944 7.414,-2.077 9.491,-3.4c0.945,-0.566 1.936,-1.605 2.975,-3.116c1.039,-1.511 2.125,-3.117 3.259,-4.817c1.133,-1.7 2.314,-3.211 3.541,-4.533c1.228,-1.323 2.503,-1.984 3.825,-1.984l31.167,0c-12.467,10.2 -24.178,21.156 -35.133,32.867c-10.956,11.711 -20.778,24.367 -29.467,37.967l-2.55,0.283c1.7,-8.689 4.344,-17.094 7.933,-25.217c3.589,-8.122 7.273,-16.244 11.05,-24.366c-2.644,0 -6.186,0.377 -10.625,1.133c-4.439,0.756 -8.547,1.228 -12.325,1.417c-7.366,14.544 -15.489,27.814 -24.366,39.808c-8.878,11.994 -18.889,22.289 -30.034,30.883c-11.144,8.595 -23.611,15.253 -37.4,19.975c-13.789,4.723 -29.277,7.084 -46.466,7.084c-5.667,0 -11.57,-0.614 -17.709,-1.842c-6.139,-1.228 -11.758,-3.258 -16.858,-6.092c-5.1,-2.833 -9.303,-6.564 -12.608,-11.191c-3.306,-4.628 -4.959,-10.342 -4.959,-17.142c0,-2.833 0.567,-5.525 1.7,-8.075c1.134,-2.55 2.598,-4.817 4.392,-6.8c1.794,-1.983 3.967,-3.589 6.517,-4.817c2.55,-1.227 5.241,-1.841 8.075,-1.841c4.911,0 9.114,1.464 12.608,4.391c3.494,2.928 5.242,6.942 5.242,12.042c0,4.344 -1.086,8.028 -3.259,11.05c-2.172,3.022 -5.241,5.194 -9.208,6.517c1.133,7.744 4.297,13.08 9.492,16.008c5.194,2.928 11.38,4.392 18.558,4.392c12.844,0 23.942,-3.211 33.292,-9.634c9.35,-6.422 17.661,-14.355 24.933,-23.8c7.272,-9.444 13.836,-19.597 19.692,-30.458c5.855,-10.861 11.616,-20.825 17.283,-29.892l-16.15,0.567Z" style="fill:#f47c22;fill-rule:nonzero;"/><path d="M782.422,239.783c-4.344,6.234 -9.208,12.514 -14.592,18.842c-5.383,6.328 -11.475,12.797 -18.275,19.408c-13.033,12.467 -25.689,21.911 -37.966,28.334c-12.278,6.422 -25.973,9.633 -41.084,9.633c-13.033,0 -22.95,-3.022 -29.75,-9.067c-6.8,-6.044 -10.2,-14.827 -10.2,-26.35c0,-10.011 2.834,-19.455 8.5,-28.333c5.667,-8.878 12.798,-16.622 21.392,-23.233c8.594,-6.611 17.944,-11.9 28.05,-15.867c10.106,-3.967 19.692,-5.95 28.758,-5.95c9.067,0 16.528,1.464 22.384,4.392c5.855,2.927 8.783,7.697 8.783,14.308c0,6.611 -3.211,12.372 -9.633,17.283c-6.423,4.911 -14.025,9.114 -22.809,12.609c-8.783,3.494 -17.614,6.327 -26.491,8.5c-8.878,2.172 -15.867,3.825 -20.967,4.958c-0.378,1.889 -0.661,3.778 -0.85,5.667c-0.189,1.889 -0.283,3.777 -0.283,5.666c0,3.4 0.377,6.753 1.133,10.059c0.756,3.305 2.031,6.186 3.825,8.641c1.794,2.456 4.156,4.439 7.083,5.95c2.928,1.511 6.564,2.267 10.909,2.267c8.877,0 18.416,-3.258 28.616,-9.775c10.2,-6.517 20.495,-14.686 30.884,-24.508c6.611,-6.423 12.419,-12.656 17.425,-18.7c5.005,-6.045 9.208,-11.523 12.608,-16.434l2.55,1.7Zm-62.333,-21.25c0,-5.289 -2.645,-7.933 -7.934,-7.933c-4.155,0 -8.641,2.125 -13.458,6.375c-4.817,4.25 -9.256,9.35 -13.317,15.3c-4.061,5.95 -7.602,12.042 -10.625,18.275c-3.022,6.233 -4.911,11.428 -5.666,15.583c7.933,-1.7 15.064,-4.297 21.391,-7.791c6.328,-3.495 11.711,-7.414 16.15,-11.759c4.439,-4.344 7.792,-8.972 10.059,-13.883c2.266,-4.911 3.4,-9.633 3.4,-14.167Z" style="fill:#f47c22;fill-rule:nonzero;"/><path d="M908.222,210.6l-18.7,26.917c-3.778,5.477 -7.556,11.191 -11.333,17.141c-3.778,5.95 -7.225,11.759 -10.342,17.425c-3.117,5.667 -5.667,10.956 -7.65,15.867c-1.983,4.911 -2.975,9.067 -2.975,12.467c0,5.477 2.172,8.216 6.517,8.216c3.966,0 8.641,-1.889 14.025,-5.666c5.383,-3.778 11.286,-8.831 17.708,-15.159c6.422,-6.327 13.128,-13.741 20.117,-22.241c6.989,-8.5 14.072,-17.473 21.25,-26.917l1.7,1.133c-7.556,9.634 -14.923,19.031 -22.1,28.192c-7.178,9.161 -14.309,17.283 -21.392,24.367c-7.083,7.083 -14.167,12.797 -21.25,17.141c-7.083,4.345 -14.308,6.517 -21.675,6.517c-6.422,0 -11.333,-1.039 -14.733,-3.117c-3.4,-2.077 -5.903,-4.675 -7.509,-7.791c-1.605,-3.117 -2.55,-6.375 -2.833,-9.775c-0.283,-3.4 -0.425,-6.423 -0.425,-9.067l-0.85,-0.567c-3.022,3.589 -6.281,7.178 -9.775,10.767c-3.494,3.589 -7.319,6.847 -11.475,9.775c-4.156,2.928 -8.5,5.289 -13.033,7.083c-4.534,1.795 -9.35,2.692 -14.45,2.692c-9.067,0 -15.914,-2.692 -20.542,-8.075c-4.628,-5.383 -6.942,-14.025 -6.942,-25.925c0,-8.311 2.078,-16.858 6.234,-25.642c4.155,-8.783 10.058,-16.811 17.708,-24.083c7.65,-7.272 16.764,-13.269 27.342,-17.992c10.577,-4.722 22.194,-7.083 34.85,-7.083c7.366,0 12.986,1.842 16.858,5.525c3.872,3.683 6.375,8.264 7.508,13.742l0.567,0l7.367,-14.734l40.233,-1.133Zm-112.483,92.933c3.966,0 9.066,-2.55 15.3,-7.65c6.233,-5.1 12.372,-11.616 18.416,-19.55c6.045,-7.933 11.239,-16.575 15.584,-25.925c4.344,-9.35 6.516,-18.275 6.516,-26.775c0,-4.344 -1.275,-7.602 -3.825,-9.775c-2.55,-2.172 -5.43,-3.258 -8.641,-3.258c-3.967,0 -7.981,1.322 -12.042,3.967c-4.061,2.644 -8.028,6.186 -11.9,10.625c-3.872,4.439 -7.556,9.444 -11.05,15.016c-3.494,5.573 -6.564,11.239 -9.208,17c-2.645,5.761 -4.723,11.475 -6.234,17.142c-1.511,5.667 -2.266,10.672 -2.266,15.017c0,3.211 0.614,6.375 1.841,9.491c1.228,3.117 3.731,4.675 7.509,4.675Z" style="fill:#f47c22;fill-rule:nonzero;"/><path d="M918.422,217.4l1.983,-4.533l23.517,0l24.083,-41.084l39.384,-1.416l-25.5,42.5l38.816,0l-2.266,4.533l-39.1,0c-2.645,4.533 -6.281,10.483 -10.909,17.85c-4.627,7.367 -9.208,15.017 -13.741,22.95c-4.534,7.933 -8.5,15.583 -11.9,22.95c-3.4,7.367 -5.1,13.411 -5.1,18.133c0,3.211 0.897,5.573 2.691,7.084c1.795,1.511 4.298,2.266 7.509,2.266c4.911,0 10.105,-1.369 15.583,-4.108c5.478,-2.739 11.003,-6.281 16.575,-10.625c5.572,-4.344 10.956,-9.208 16.15,-14.592c5.194,-5.383 10.106,-10.719 14.733,-16.008c4.628,-5.289 8.831,-10.247 12.609,-14.875c3.777,-4.628 6.8,-8.358 9.066,-11.192l2.267,1.134c-6.422,7.555 -13.222,15.866 -20.4,24.933c-7.178,9.067 -14.922,17.519 -23.233,25.358c-8.311,7.839 -17.284,14.356 -26.917,19.55c-9.633,5.195 -20.117,7.792 -31.45,7.792c-8.689,0 -15.158,-2.314 -19.408,-6.942c-4.25,-4.627 -6.375,-10.625 -6.375,-17.991c0,-3.778 0.519,-7.509 1.558,-11.192c1.039,-3.683 2.881,-8.217 5.525,-13.6c2.644,-5.383 6.139,-11.947 10.483,-19.692c4.345,-7.744 9.917,-17.472 16.717,-29.183l-22.95,0Z" style="fill:#f47c22;fill-rule:nonzero;"/><path d="M979.055,312.6c19.456,-32.867 38.628,-65.686 57.517,-98.458c18.889,-32.773 38.061,-65.686 57.517,-98.742l40.516,-2.833c-15.677,26.255 -31.497,52.7 -47.458,79.333c-15.961,26.633 -31.969,52.039 -48.025,76.217l0.567,0.566c4.344,-5.855 9.397,-12.325 15.158,-19.408c5.761,-7.083 12.042,-13.742 18.842,-19.975c6.8,-6.233 13.977,-11.475 21.533,-15.725c7.556,-4.25 15.111,-6.375 22.667,-6.375c6.233,0 11.664,1.653 16.291,4.958c4.628,3.306 6.942,8.831 6.942,16.575c0,6.8 -1.936,13.648 -5.808,20.542c-3.873,6.894 -8.17,13.506 -12.892,19.833c-4.722,6.328 -9.019,12.325 -12.892,17.992c-3.872,5.667 -5.808,10.578 -5.808,14.733c0,2.078 0.519,3.731 1.558,4.959c1.039,1.227 2.598,1.841 4.675,1.841c3.778,0 8.075,-1.558 12.892,-4.675c4.817,-3.116 9.728,-7.036 14.733,-11.758c5.006,-4.722 9.964,-9.964 14.875,-15.725c4.911,-5.761 9.445,-11.239 13.6,-16.433c4.156,-5.195 7.745,-9.823 10.767,-13.884c3.022,-4.061 5.194,-6.847 6.517,-8.358l1.7,1.417c-3.211,3.966 -6.753,8.594 -10.625,13.883c-3.873,5.289 -8.123,10.814 -12.75,16.575c-4.628,5.761 -9.492,11.381 -14.592,16.858c-5.1,5.478 -10.342,10.436 -15.725,14.875c-5.383,4.439 -10.956,7.981 -16.717,10.625c-5.761,2.645 -11.569,3.967 -17.425,3.967c-3.589,0 -6.8,-0.708 -9.633,-2.125c-2.833,-1.417 -5.194,-3.306 -7.083,-5.667c-1.889,-2.361 -3.306,-5.1 -4.25,-8.216c-0.945,-3.117 -1.417,-6.281 -1.417,-9.492c0,-7.178 1.794,-13.883 5.383,-20.117c3.589,-6.233 7.509,-12.136 11.759,-17.708c4.25,-5.572 8.122,-10.767 11.616,-15.583c3.495,-4.817 5.242,-9.209 5.242,-13.175c0,-4.723 -2.172,-7.084 -6.517,-7.084c-3.4,0 -7.508,1.559 -12.325,4.675c-4.816,3.117 -9.916,7.273 -15.3,12.467c-5.383,5.194 -10.861,11.097 -16.433,17.708c-5.572,6.611 -10.908,13.411 -16.008,20.4c-5.1,6.989 -9.775,13.836 -14.025,20.542c-4.25,6.706 -7.698,12.797 -10.342,18.275l-38.817,1.7Z" style="fill:#f47c22;fill-rule:nonzero;"/><path d="M1307.15,239.783c-4.344,6.234 -9.208,12.514 -14.591,18.842c-5.384,6.328 -11.475,12.797 -18.275,19.408c-13.034,12.467 -25.689,21.911 -37.967,28.334c-12.278,6.422 -25.972,9.633 -41.083,9.633c-13.034,0 -22.95,-3.022 -29.75,-9.067c-6.8,-6.044 -10.2,-14.827 -10.2,-26.35c0,-10.011 2.833,-19.455 8.5,-28.333c5.666,-8.878 12.797,-16.622 21.391,-23.233c8.595,-6.611 17.945,-11.9 28.05,-15.867c10.106,-3.967 19.692,-5.95 28.759,-5.95c9.066,0 16.527,1.464 22.383,4.392c5.856,2.927 8.783,7.697 8.783,14.308c0,6.611 -3.211,12.372 -9.633,17.283c-6.422,4.911 -14.025,9.114 -22.808,12.609c-8.784,3.494 -17.614,6.327 -26.492,8.5c-8.878,2.172 -15.867,3.825 -20.967,4.958c-0.377,1.889 -0.661,3.778 -0.85,5.667c-0.189,1.889 -0.283,3.777 -0.283,5.666c0,3.4 0.378,6.753 1.133,10.059c0.756,3.305 2.031,6.186 3.825,8.641c1.795,2.456 4.156,4.439 7.084,5.95c2.927,1.511 6.564,2.267 10.908,2.267c8.878,0 18.417,-3.258 28.617,-9.775c10.2,-6.517 20.494,-14.686 30.883,-24.508c6.611,-6.423 12.419,-12.656 17.425,-18.7c5.006,-6.045 9.208,-11.523 12.608,-16.434l2.55,1.7Zm-62.333,-21.25c0,-5.289 -2.644,-7.933 -7.933,-7.933c-4.156,0 -8.642,2.125 -13.459,6.375c-4.816,4.25 -9.255,9.35 -13.316,15.3c-4.061,5.95 -7.603,12.042 -10.625,18.275c-3.023,6.233 -4.911,11.428 -5.667,15.583c7.933,-1.7 15.064,-4.297 21.392,-7.791c6.327,-3.495 11.711,-7.414 16.15,-11.759c4.439,-4.344 7.791,-8.972 10.058,-13.883c2.267,-4.911 3.4,-9.633 3.4,-14.167Z" style="fill:#f47c22;fill-rule:nonzero;"/><path d="M1252.47,312.6l57.233,-100.867l40.8,-1.133l-43.35,64.033l0.567,0.567c10.389,-14.922 20.069,-26.917 29.042,-35.983c8.972,-9.067 16.858,-15.017 23.658,-17.85c2.644,-3.211 5.006,-5.761 7.083,-7.65c2.078,-1.889 4.77,-3.4 8.075,-4.534c3.306,-1.133 7.745,-1.936 13.317,-2.408c5.572,-0.472 13.175,-0.897 22.808,-1.275c-2.266,2.267 -4.533,4.817 -6.8,7.65c-2.266,2.833 -4.344,5.856 -6.233,9.067c-1.889,3.211 -3.447,6.516 -4.675,9.916c-1.228,3.4 -1.842,6.706 -1.842,9.917c0,3.967 0.992,7.65 2.975,11.05c1.984,3.4 5.148,5.1 9.492,5.1c2.833,0 5.667,-0.614 8.5,-1.842c2.833,-1.227 5.572,-2.833 8.217,-4.816c2.644,-1.984 5.147,-4.203 7.508,-6.659c2.361,-2.455 4.486,-4.816 6.375,-7.083l1.983,1.7c-1.322,1.511 -3.211,3.731 -5.666,6.658c-2.456,2.928 -5.714,5.809 -9.775,8.642c-4.061,2.833 -9.067,5.336 -15.017,7.508c-5.95,2.173 -13.081,3.259 -21.392,3.259c-4.533,0 -8.689,-0.709 -12.466,-2.125c-3.778,-1.417 -6.942,-3.259 -9.492,-5.525c-2.55,-2.267 -4.533,-4.911 -5.95,-7.934c-1.417,-3.022 -2.125,-6.233 -2.125,-9.633c0,-5.667 0.756,-10.106 2.267,-13.317l0,-0.566c-5.667,3.022 -11.853,8.027 -18.559,15.016c-6.705,6.989 -13.222,14.686 -19.55,23.092c-6.327,8.406 -12.089,16.811 -17.283,25.217c-5.194,8.405 -9.114,15.441 -11.758,21.108l-37.967,1.7Z" style="fill:#f47c22;fill-rule:nonzero;"/><path d="M1575.76,137.783c-1.7,1.7 -3.589,4.25 -5.666,7.65c-2.078,3.4 -3.117,7.745 -3.117,13.034c0,6.989 2.172,12.655 6.517,17c4.344,4.344 9.727,6.516 16.15,6.516c6.044,0 11.616,-1.652 16.716,-4.958c5.1,-3.306 9.492,-7.508 13.175,-12.608c3.684,-5.1 6.517,-10.673 8.5,-16.717c1.984,-6.044 2.975,-11.711 2.975,-17c0,-6.989 -1.936,-11.947 -5.808,-14.875c-3.872,-2.928 -9.114,-4.392 -15.725,-4.392c-10.011,0 -20.258,2.125 -30.742,6.375c-10.483,4.25 -20.589,10.059 -30.316,17.425c-9.728,7.367 -18.889,16.009 -27.484,25.925c-8.594,9.917 -16.055,20.636 -22.383,32.159c-6.328,11.522 -11.333,23.469 -15.017,35.841c-3.683,12.373 -5.525,24.698 -5.525,36.975c0,6.045 0.803,11.806 2.409,17.284c1.605,5.477 3.919,10.294 6.941,14.45c3.023,4.155 6.564,7.461 10.625,9.916c4.061,2.456 8.548,3.684 13.459,3.684c7.366,0 14.497,-1.748 21.391,-5.242c6.895,-3.494 13.081,-8.075 18.559,-13.742c5.477,-5.666 9.869,-12.183 13.175,-19.55c3.305,-7.366 4.958,-15.016 4.958,-22.95c0,-4.155 -0.425,-8.169 -1.275,-12.041c-0.85,-3.873 -2.172,-7.273 -3.967,-10.2c-1.794,-2.928 -4.061,-5.289 -6.8,-7.084c-2.739,-1.794 -6.091,-2.691 -10.058,-2.691c-7.556,0 -13.694,2.502 -18.417,7.508c-4.722,5.006 -8.358,10.814 -10.908,17.425c-2.55,6.611 -4.297,13.033 -5.242,19.267c-0.944,6.233 -1.416,10.672 -1.416,13.316l-3.4,0c0,-7.366 0.991,-15.016 2.975,-22.95c1.983,-7.933 5.1,-15.252 9.35,-21.958c4.25,-6.706 9.727,-12.183 16.433,-16.433c6.706,-4.25 14.686,-6.375 23.942,-6.375c5.1,0 9.822,0.85 14.166,2.55c4.345,1.7 8.123,4.108 11.334,7.225c3.211,3.116 5.761,6.8 7.65,11.05c1.889,4.25 2.833,8.925 2.833,14.025c0,9.066 -2.597,18.086 -7.792,27.058c-5.194,8.972 -12.089,16.953 -20.683,23.942c-8.594,6.989 -18.464,12.655 -29.608,17c-11.145,4.344 -22.667,6.516 -34.567,6.516c-22.667,0 -39.289,-5.525 -49.867,-16.575c-10.577,-11.05 -15.866,-26.68 -15.866,-46.891c0,-11.711 2.644,-23.47 7.933,-35.275c5.289,-11.806 12.325,-23.092 21.108,-33.859c8.784,-10.766 18.889,-20.825 30.317,-30.175c11.428,-9.35 23.375,-17.472 35.842,-24.366c12.466,-6.895 24.933,-12.278 37.4,-16.15c12.466,-3.873 24.083,-5.809 34.85,-5.809c5.666,0 11.333,0.425 17,1.275c5.666,0.85 10.672,2.456 15.016,4.817c4.345,2.361 7.886,5.667 10.625,9.917c2.739,4.25 4.109,9.775 4.109,16.575c0,5.855 -1.464,11.569 -4.392,17.141c-2.928,5.573 -6.942,10.484 -12.042,14.734c-5.1,4.25 -11.002,7.65 -17.708,10.2c-6.706,2.55 -13.836,3.825 -21.392,3.825c-4.344,0 -8.547,-0.52 -12.608,-1.559c-4.061,-1.039 -7.65,-2.691 -10.767,-4.958c-3.116,-2.267 -5.572,-5.147 -7.366,-8.642c-1.795,-3.494 -2.692,-7.697 -2.692,-12.608c0,-3.778 0.803,-7.65 2.408,-11.617c1.606,-3.966 4.109,-7.65 7.509,-11.05l2.266,1.7Z" style="fill:#f47c22;fill-rule:nonzero;"/><path d="M1794.49,239.783c-0.756,0.756 -1.984,2.031 -3.684,3.825c-1.7,1.795 -3.825,3.589 -6.375,5.384c-2.55,1.794 -5.43,3.4 -8.641,4.816c-3.211,1.417 -6.706,2.125 -10.484,2.125c-4.911,0 -9.302,-1.18 -13.175,-3.541c-3.872,-2.361 -7.414,-5.525 -10.625,-9.492l-0.566,0c0,9.822 -2.314,19.172 -6.942,28.05c-4.628,8.878 -10.767,16.669 -18.417,23.375c-7.65,6.706 -16.386,11.994 -26.208,15.867c-9.822,3.872 -20.022,5.808 -30.6,5.808c-6.233,0 -12.278,-0.661 -18.133,-1.983c-5.856,-1.323 -11.05,-3.495 -15.584,-6.517c-4.533,-3.022 -8.169,-6.989 -10.908,-11.9c-2.739,-4.911 -4.108,-10.956 -4.108,-18.133c0,-10.767 2.55,-20.495 7.65,-29.184c5.1,-8.689 11.664,-16.102 19.691,-22.241c8.028,-6.139 17.095,-10.814 27.2,-14.025c10.106,-3.211 20.07,-4.817 29.892,-4.817c8.122,0 14.828,1.133 20.117,3.4c5.289,2.267 9.775,5.053 13.458,8.358c3.683,3.306 6.8,6.942 9.35,10.909c2.55,3.966 5.1,7.602 7.65,10.908c2.55,3.306 5.383,6.092 8.5,8.358c3.117,2.267 7.036,3.4 11.758,3.4c4.345,0 8.831,-1.275 13.459,-3.825c4.627,-2.55 9.114,-6.28 13.458,-11.191l2.267,2.266Zm-95.484,-29.183c-4.533,0 -9.114,1.558 -13.741,4.675c-4.628,3.117 -9.114,7.178 -13.459,12.183c-4.344,5.006 -8.405,10.673 -12.183,17c-3.778,6.328 -7.083,12.703 -9.917,19.125c-2.833,6.423 -5.052,12.656 -6.658,18.7c-1.606,6.045 -2.408,11.334 -2.408,15.867c0,4.344 0.991,7.839 2.975,10.483c1.983,2.645 4.769,3.967 8.358,3.967c4.533,0 9.114,-1.558 13.742,-4.675c4.627,-3.117 9.114,-7.178 13.458,-12.183c4.344,-5.006 8.406,-10.673 12.183,-17c3.778,-6.328 7.084,-12.703 9.917,-19.125c2.833,-6.423 5.053,-12.703 6.658,-18.842c1.606,-6.139 2.409,-11.381 2.409,-15.725c0,-4.344 -0.992,-7.839 -2.975,-10.483c-1.984,-2.645 -4.77,-3.967 -8.359,-3.967Z" style="fill:#f47c22;fill-rule:nonzero;"/><path d="M1740.37,312.6l57.233,-100.867l40.8,-1.133l-43.35,64.033l0.567,0.567c10.389,-14.922 20.069,-26.917 29.042,-35.983c8.972,-9.067 16.858,-15.017 23.658,-17.85c2.644,-3.211 5.006,-5.761 7.083,-7.65c2.078,-1.889 4.77,-3.4 8.075,-4.534c3.306,-1.133 7.745,-1.936 13.317,-2.408c5.572,-0.472 13.175,-0.897 22.808,-1.275c-2.266,2.267 -4.533,4.817 -6.8,7.65c-2.266,2.833 -4.344,5.856 -6.233,9.067c-1.889,3.211 -3.447,6.516 -4.675,9.916c-1.228,3.4 -1.842,6.706 -1.842,9.917c0,3.967 0.992,7.65 2.975,11.05c1.984,3.4 5.148,5.1 9.492,5.1c2.833,0 5.667,-0.614 8.5,-1.842c2.833,-1.227 5.572,-2.833 8.217,-4.816c2.644,-1.984 5.147,-4.203 7.508,-6.659c2.361,-2.455 4.486,-4.816 6.375,-7.083l1.983,1.7c-1.322,1.511 -3.211,3.731 -5.666,6.658c-2.456,2.928 -5.714,5.809 -9.775,8.642c-4.061,2.833 -9.067,5.336 -15.017,7.508c-5.95,2.173 -13.081,3.259 -21.392,3.259c-4.533,0 -8.689,-0.709 -12.466,-2.125c-3.778,-1.417 -6.942,-3.259 -9.492,-5.525c-2.55,-2.267 -4.533,-4.911 -5.95,-7.934c-1.417,-3.022 -2.125,-6.233 -2.125,-9.633c0,-5.667 0.756,-10.106 2.267,-13.317l0,-0.566c-5.667,3.022 -11.853,8.027 -18.559,15.016c-6.705,6.989 -13.222,14.686 -19.55,23.092c-6.327,8.406 -12.089,16.811 -17.283,25.217c-5.194,8.405 -9.114,15.441 -11.758,21.108l-37.967,1.7Z" style="fill:#f47c22;fill-rule:nonzero;"/><path d="M2005.01,153.367l-70.833,105.683l0.567,0.567c3.966,-5.1 8.311,-10.673 13.033,-16.717c4.722,-6.044 9.917,-11.711 15.583,-17c5.667,-5.289 11.711,-9.728 18.134,-13.317c6.422,-3.589 13.222,-5.383 20.4,-5.383c4.155,0 7.933,0.85 11.333,2.55c3.4,1.7 6.328,3.967 8.783,6.8c2.456,2.833 4.392,6.092 5.809,9.775c1.416,3.683 2.125,7.508 2.125,11.475c0,9.633 -2.031,18.181 -6.092,25.642c-4.061,7.461 -8.642,13.836 -13.742,19.125l0,0.566c13.411,-3.777 25.453,-9.586 36.125,-17.425c10.673,-7.839 20.353,-17.33 29.042,-28.475l2.267,1.417c-8.878,12.467 -19.456,22.903 -31.734,31.308c-12.277,8.406 -25.405,14.214 -39.383,17.425c-4.533,3.967 -9.586,7.65 -15.158,11.05c-5.573,3.4 -11.192,6.423 -16.859,9.067c-5.666,2.644 -11.191,4.722 -16.575,6.233c-5.383,1.511 -10.247,2.267 -14.591,2.267c-1.889,0 -3.825,-0.094 -5.809,-0.283c-1.983,-0.189 -3.825,-0.661 -5.525,-1.417c-1.7,-0.756 -3.069,-1.842 -4.108,-3.258c-1.039,-1.417 -1.558,-3.259 -1.558,-5.525c0,-3.778 1.747,-6.848 5.241,-9.209c3.495,-2.361 7.745,-4.25 12.75,-5.666c5.006,-1.417 10.2,-2.456 15.584,-3.117c5.383,-0.661 9.964,-1.086 13.741,-1.275c1.7,-2.644 3.636,-5.761 5.809,-9.35c2.172,-3.589 4.297,-7.508 6.375,-11.758c2.077,-4.25 3.825,-8.878 5.241,-13.884c1.417,-5.005 2.125,-10.152 2.125,-15.441c0,-1.323 -0.094,-2.834 -0.283,-4.534c-0.189,-1.7 -0.661,-3.352 -1.417,-4.958c-0.755,-1.606 -1.889,-2.928 -3.4,-3.967c-1.511,-1.039 -3.494,-1.558 -5.95,-1.558c-4.533,0 -9.68,2.739 -15.441,8.217c-5.761,5.477 -11.617,12.136 -17.567,19.975c-5.95,7.839 -11.664,16.008 -17.142,24.508c-5.477,8.5 -10.389,15.867 -14.733,22.1c-11.9,17.378 -22.95,35.133 -33.15,53.267c-10.2,18.133 -20.4,36.077 -30.6,53.833l-40.517,1.7c25.878,-40.989 51.236,-82.072 76.075,-123.25c24.839,-41.178 50.009,-82.828 75.509,-124.95l40.516,-2.833Zm-65.166,153.283c0,1.511 0.33,2.881 0.991,4.108c0.661,1.228 2.031,1.842 4.109,1.842c2.455,0 4.864,-0.803 7.225,-2.408c2.361,-1.606 4.627,-3.589 6.8,-5.95c2.172,-2.361 4.297,-4.864 6.375,-7.509c2.077,-2.644 4.061,-5.005 5.95,-7.083c-4.156,0.189 -8.123,0.756 -11.9,1.7c-3.778,0.944 -7.131,2.125 -10.059,3.542c-2.927,1.416 -5.241,3.116 -6.941,5.1c-1.7,1.983 -2.55,4.202 -2.55,6.658Z" style="fill:#f47c22;fill-rule:nonzero;"/><path d="M21.445,412.759c4.915,-43.177 9.287,-63.036 28.571,-89.114c-8.726,12.755 -9.724,14.502 -12.553,26.24c42.403,-47.969 108.124,-84.934 161.574,-112.052c-21.196,-2.218 -54.236,-0.422 -74.726,5.429c24.048,-9.066 52.856,-12.58 81.864,-11.779c35.888,-23.221 73.004,-48.305 98.654,-80.904c-23.662,-0.79 -55.692,10.192 -89.785,21.289c28.731,-10.318 51.474,-26.903 94.345,-28.418c7.014,-11.319 13.294,-26.625 18.964,-45.229c-14.982,-1.988 -33.069,10.239 -56.162,20.837c15.504,-11.224 33.674,-22.528 55.805,-28.74c8.319,-29.945 7.494,-63.131 -0.57,-86.41c-13.889,24.577 -35.993,45.722 -55.731,61.22c2.241,10.417 4.07,22.978 1.929,29.41c0.132,-7.885 -6.262,-18.944 -8.367,-25.799c-15.286,13.539 -31.857,25.62 -54.102,38.584c7.539,13.432 10.717,28.886 5.525,45.789c2.823,-19.522 -2.885,-31.736 -10.472,-43.186c-20.659,15.49 -38.247,30.729 -60.609,44.061c2.147,17.359 1.738,38.283 -7.39,57.254c3.165,-18.802 6.709,-42.33 1.32,-53.807c-67.016,48.835 -98.982,121.386 -109.833,190.781l-14.435,51.746c2.587,1.716 4.28,7.191 6.184,12.798Zm303.025,-386.064c-24.574,54.445 -68.497,110.247 -129.616,148.357c-68.046,46.782 -112.411,87.192 -139.636,122.99c24.693,-25.521 39.267,-48.147 139.468,-119.473c61.065,-36.052 109.103,-99.982 129.784,-151.874Z" style="fill:#f47c22;"/></svg>